<svg width="24" height="24" viewBox="0 0 24 24" fill="none" xmlns="http://www.w3.org/2000/svg">
<path d="M20.8944 6.30996C20.7784 6.30996 20.674 6.35796 20.5992 6.435L13.7784 10.3729V6.72228C13.7782 6.64034 13.7537 6.56029 13.7079 6.49235C13.6621 6.42441 13.5971 6.37166 13.5212 6.34083C13.4452 6.31001 13.3618 6.3025 13.2816 6.31927C13.2014 6.33604 13.128 6.37633 13.0708 6.435L5.07452 11.0519V5.4402H5.0714C5.07188 5.43084 5.07428 5.4222 5.07428 5.41284C5.07421 5.2516 5.0102 5.09698 4.89628 4.98287C4.78236 4.86877 4.62783 4.80452 4.4666 4.8042H3.30212V4.80996C3.14063 4.80996 2.98576 4.87411 2.87157 4.9883C2.75739 5.10248 2.69324 5.25735 2.69324 5.41884C2.69324 5.42964 2.69588 5.43948 2.69636 5.45028V18.6424H2.70212C2.71604 18.7928 2.78556 18.9326 2.89709 19.0345C3.00863 19.1364 3.15416 19.1931 3.30524 19.1934C3.31244 19.1934 3.31916 19.1915 3.32612 19.1912H4.42268C4.43972 19.1927 4.45628 19.1963 4.4738 19.1963C4.8098 19.1963 5.08268 18.9236 5.08268 18.5874C5.08268 18.5593 5.07812 18.5322 5.07428 18.5051V12.951L13.0761 17.571C13.1332 17.6274 13.2055 17.6659 13.2841 17.6818C13.3628 17.6976 13.4443 17.6901 13.5188 17.6603C13.5932 17.6304 13.6573 17.5794 13.7032 17.5135C13.7491 17.4477 13.7747 17.3699 13.7769 17.2897H13.7781V13.63L20.6044 17.5712C20.6615 17.6276 20.7338 17.6661 20.8124 17.682C20.8911 17.6979 20.9727 17.6904 21.0471 17.6605C21.1216 17.6306 21.1857 17.5796 21.2315 17.5138C21.2774 17.448 21.303 17.3702 21.3052 17.29H21.3064V6.72228C21.3065 6.66814 21.2958 6.61453 21.2751 6.56451C21.2544 6.51449 21.2241 6.46903 21.1858 6.43074C21.1476 6.39245 21.1021 6.36207 21.0521 6.34135C21.0021 6.32063 20.9485 6.30996 20.8944 6.30996Z" fill="white"/>
</svg>
