<svg width="24" height="24" viewBox="0 0 24 24" fill="none" xmlns="http://www.w3.org/2000/svg">
<path d="M3.10558 17.69C3.2215 17.69 3.3259 17.642 3.40078 17.565L10.2216 13.6271V17.2777C10.2217 17.3597 10.2462 17.4397 10.292 17.5077C10.3378 17.5756 10.4029 17.6283 10.4788 17.6592C10.5547 17.69 10.6381 17.6975 10.7183 17.6807C10.7985 17.664 10.8719 17.6237 10.9291 17.565L18.9254 12.9481V18.5598H18.9285C18.9281 18.5692 18.9257 18.5778 18.9257 18.5872C18.9257 18.7484 18.9897 18.903 19.1037 19.0171C19.2176 19.1312 19.3721 19.1955 19.5333 19.1958H20.6978V19.19C20.8593 19.19 21.0142 19.1259 21.1284 19.0117C21.2426 18.8975 21.3067 18.7426 21.3067 18.5812C21.3067 18.5704 21.3041 18.5605 21.3036 18.5497V5.35764H21.2978C21.2839 5.2072 21.2144 5.06737 21.1028 4.96546C20.9913 4.86356 20.8458 4.80691 20.6947 4.8066C20.6875 4.8066 20.6808 4.80852 20.6738 4.80876H19.5773C19.5602 4.80732 19.5437 4.80372 19.5261 4.80372C19.1901 4.80372 18.9173 5.07636 18.9173 5.4126C18.9173 5.44068 18.9218 5.4678 18.9257 5.49492V11.049L10.9238 6.429C10.8668 6.3726 10.7945 6.3341 10.7158 6.31824C10.6372 6.30238 10.5556 6.30986 10.4811 6.33974C10.4067 6.36963 10.3426 6.42062 10.2967 6.48645C10.2509 6.55228 10.2253 6.63008 10.223 6.71028H10.2218V10.37L3.3955 6.42876C3.33844 6.37236 3.26615 6.33386 3.1875 6.318C3.10885 6.30214 3.02728 6.30962 2.95283 6.3395C2.87837 6.36939 2.81427 6.42038 2.76841 6.48621C2.72255 6.55204 2.69693 6.62984 2.6947 6.71004H2.6935V17.2777C2.69347 17.3319 2.70411 17.3855 2.7248 17.4355C2.7455 17.4855 2.77584 17.531 2.81411 17.5693C2.85238 17.6076 2.89782 17.6379 2.94783 17.6587C2.99784 17.6794 3.05145 17.69 3.10558 17.69Z" fill="white"/>
</svg>
