<svg width="24" height="24" viewBox="0 0 24 24" fill="none" xmlns="http://www.w3.org/2000/svg">
<g clip-path="url(#clip0_71_18)">
<path d="M14.8041 19.1713H16.7246C17.469 19.1713 17.8581 18.7822 17.8581 18.0378V6.51563C17.8581 5.74591 17.469 5.39062 16.7246 5.39062H14.8046C14.0597 5.39062 13.6791 5.77977 13.6791 6.51563V18.0378C13.6791 18.7822 14.0597 19.1713 14.8041 19.1713ZM20.9541 19.1713H22.8746C23.619 19.1713 24 18.7822 24 18.0378V6.51563C24 5.74591 23.619 5.39062 22.8746 5.39062H20.9546C20.2101 5.39062 19.821 5.77977 19.821 6.51563V18.0378C19.821 18.7822 20.2097 19.1713 20.9541 19.1713ZM1.21886 18.9176C1.56557 18.9176 1.85314 18.8075 2.19171 18.6048L10.812 13.5373C11.4124 13.1816 11.6747 12.7591 11.6747 12.2769C11.6747 11.7862 11.4124 11.3718 10.812 11.0165L2.19086 5.94005C1.84414 5.73691 1.56514 5.6272 1.218 5.6272C0.558 5.6272 0 6.13505 0 7.08262V17.4712C0 18.4183 0.558429 18.9176 1.218 18.9176" fill="white"/>
</g>
<defs>
<clipPath id="clip0_71_18">
<rect width="24" height="24" fill="white"/>
</clipPath>
</defs>
</svg>
