<svg width="24" height="24" viewBox="0 0 24 24" fill="none" xmlns="http://www.w3.org/2000/svg">
<path d="M20.341 4.24715L12.341 11.2471C12.2336 11.341 12.1475 11.4568 12.0885 11.5866C12.0295 11.7165 11.999 11.8575 11.999 12.0001C11.999 12.1428 12.0295 12.2838 12.0885 12.4137C12.1475 12.5435 12.2336 12.6593 12.341 12.7531L20.341 19.7531C20.988 20.3181 22 19.8591 22 19.0001V5.00015C22 4.14015 20.988 3.68215 20.341 4.24715ZM9.341 4.24715L1.341 11.2471C1.23359 11.341 1.14751 11.4568 1.08852 11.5866C1.02954 11.7165 0.999023 11.8575 0.999023 12.0001C0.999023 12.1428 1.02954 12.2838 1.08852 12.4137C1.14751 12.5435 1.23359 12.6593 1.341 12.7531L9.341 19.7531C9.988 20.3181 11 19.8591 11 19.0001V5.00015C11 4.14015 9.988 3.68215 9.341 4.24715Z" fill="black"/>
</svg>
