<svg width="24" height="24" viewBox="0 0 24 24" fill="none" xmlns="http://www.w3.org/2000/svg">
<path d="M11.3355 3.0988C11.5334 3.18757 11.7014 3.33164 11.8193 3.51367C11.9372 3.6957 11.9999 3.90793 12 4.1248V19.8748C11.9998 20.0915 11.9369 20.3036 11.8191 20.4854C11.7012 20.6673 11.5333 20.8113 11.3356 20.9C11.1378 20.9887 10.9187 21.0185 10.7045 20.9856C10.4902 20.9527 10.2901 20.8587 10.128 20.7148L5.385 16.4998H3C2.60218 16.4998 2.22064 16.3418 1.93934 16.0605C1.65804 15.7792 1.5 15.3976 1.5 14.9998V8.9998C1.5 8.60197 1.65804 8.22044 1.93934 7.93914C2.22064 7.65783 2.60218 7.4998 3 7.4998H5.385L10.128 3.2848C10.29 3.14077 10.4901 3.0466 10.7043 3.0136C10.9185 2.98061 11.1377 3.01019 11.3355 3.0988ZM19.425 4.5748C19.322 4.46427 19.1978 4.37562 19.0598 4.31413C18.9218 4.25264 18.7728 4.21958 18.6218 4.21691C18.4707 4.21425 18.3207 4.24203 18.1806 4.29862C18.0405 4.3552 17.9133 4.43941 17.8064 4.54624C17.6996 4.65307 17.6154 4.78032 17.5588 4.9204C17.5022 5.06048 17.4744 5.21053 17.4771 5.36158C17.4798 5.51264 17.5128 5.66161 17.5743 5.79961C17.6358 5.93761 17.7245 6.06181 17.835 6.1648C18.6015 6.93093 19.2095 7.84058 19.6244 8.84177C20.0392 9.84295 20.2527 10.9161 20.2527 11.9998C20.2527 13.0835 20.0392 14.1566 19.6244 15.1578C19.2095 16.159 18.6015 17.0687 17.835 17.8348C17.7245 17.9378 17.6358 18.062 17.5743 18.2C17.5128 18.338 17.4798 18.487 17.4771 18.638C17.4744 18.7891 17.5022 18.9391 17.5588 19.0792C17.6154 19.2193 17.6996 19.3465 17.8064 19.4534C17.9133 19.5602 18.0405 19.6444 18.1806 19.701C18.3207 19.7576 18.4707 19.7854 18.6218 19.7827C18.7728 19.78 18.9218 19.747 19.0598 19.6855C19.1978 19.624 19.322 19.5353 19.425 19.4248C20.4001 18.4498 21.1736 17.2922 21.7014 16.0182C22.2291 14.7442 22.5008 13.3788 22.5008 11.9998C22.5008 10.6208 22.2291 9.25536 21.7014 7.98138C21.1736 6.70739 20.4001 5.54983 19.425 4.5748Z" fill="white"/>
<path d="M16.242 7.75796C16.139 7.64743 16.0148 7.55878 15.8768 7.49729C15.7388 7.43581 15.5898 7.40274 15.4388 7.40008C15.2877 7.39741 15.1377 7.4252 14.9976 7.48178C14.8575 7.53836 14.7303 7.62258 14.6234 7.72941C14.5166 7.83624 14.4324 7.96349 14.3758 8.10357C14.3192 8.24365 14.2915 8.39369 14.2941 8.54475C14.2968 8.6958 14.3298 8.84477 14.3913 8.98277C14.4528 9.12077 14.5415 9.24497 14.652 9.34796C15.0003 9.6962 15.2766 10.1096 15.4652 10.5647C15.6537 11.0197 15.7507 11.5074 15.7507 12C15.7507 12.4925 15.6537 12.9802 15.4652 13.4353C15.2766 13.8903 15.0003 14.3037 14.652 14.652C14.5415 14.755 14.4528 14.8792 14.3913 15.0172C14.3298 15.1552 14.2968 15.3041 14.2941 15.4552C14.2915 15.6062 14.3192 15.7563 14.3758 15.8964C14.4324 16.0364 14.5166 16.1637 14.6234 16.2705C14.7303 16.3774 14.8575 16.4616 14.9976 16.5181C15.1377 16.5747 15.2877 16.6025 15.4388 16.5999C15.5898 16.5972 15.7388 16.5641 15.8768 16.5026C16.0148 16.4411 16.139 16.3525 16.242 16.242C17.3668 15.1168 17.9987 13.591 17.9987 12C17.9987 10.409 17.3668 8.88313 16.242 7.75796Z" fill="white"/>
</svg>
